<?xml version="1.0" encoding="UTF-8"?>
<svg id="Layer_1" data-name="Layer 1" xmlns="http://www.w3.org/2000/svg" viewBox="0 0 1313.43 93.15">
  <defs>
    <style>
      .cls-1 {
        fill: #fff;
      }

      .cls-2 {
        fill: #eb008b;
      }
    </style>
  </defs>
  <path class="cls-2" d="M310.38,64.68H31.54c-10,0-18.11-8.1-18.11-18.1,0-5,2.03-9.53,5.31-12.81s7.8-5.3,12.8-5.3h242.63c10,0,18.11,8.11,18.11,18.11s8.1,18.1,18.1,18.1Z"/>
  <g>
    <path class="cls-1" d="M39.24,52.39l3.23-15.3h12.24l-.88,4.13h-6.49l-.29,1.38h5.58l-.9,4.28h-5.58l-1.16,5.51h-5.75Z"/>
    <path class="cls-1" d="M52.31,52.39l3.23-15.3h12.24l-.88,4.13h-6.49l-.29,1.38h5.58l-.9,4.28h-5.58l-.31,1.38h6.49l-.86,4.13h-12.24Z"/>
    <path class="cls-1" d="M65.02,52.39l9.12-15.3h5.96l2.66,15.3h-5.7l-.5-2.85h-3.71l-1.69,2.85h-6.15ZM74.31,45.62h2.33l-.55-2.92-1.78,2.92Z"/>
    <path class="cls-1" d="M85.03,52.39l2.35-11.17h-3.9l.88-4.13h13.54l-.88,4.13h-3.9l-2.35,11.17h-5.75Z"/>
    <path class="cls-1" d="M102.96,52.63c-1.96,0-3.53-.45-4.69-1.34-1.16-.89-1.75-2.11-1.75-3.65,0-.44.05-.9.14-1.38l1.95-9.17h5.75l-1.81,8.53c-.09.4-.14.74-.14,1.02,0,.44.13.74.39.89s.66.23,1.2.23c.74,0,1.28-.17,1.62-.52.33-.35.58-.89.74-1.62l1.81-8.53h5.75l-1.97,9.27c-.43,2.04-1.39,3.6-2.89,4.67-1.5,1.07-3.53,1.6-6.09,1.6Z"/>
    <path class="cls-1" d="M112.23,52.39l3.23-15.3h8.6c1.49,0,2.65.41,3.48,1.24.83.82,1.25,1.88,1.25,3.16,0,.43-.05.87-.14,1.33-.21,1.03-.63,1.93-1.27,2.7-.64.77-1.45,1.41-2.41,1.94.25.21.41.47.48.78l.93,4.16h-5.99l-.78-3.4c-.06-.33-.25-.5-.57-.5h-.24l-.81,3.9h-5.75ZM119.76,44.01h1.4c.93,0,1.48-.4,1.64-1.19.02-.08.03-.15.04-.21s.01-.13.01-.19c0-.55-.36-.83-1.09-.83h-1.5l-.5,2.42Z"/>
    <path class="cls-1" d="M127.81,52.39l3.23-15.3h12.24l-.88,4.13h-6.49l-.29,1.38h5.58l-.9,4.28h-5.58l-.31,1.38h6.49l-.86,4.13h-12.24Z"/>
    <path class="cls-1" d="M145.66,52.39l3.23-15.3h5.75l-2.3,10.93h6.25l-.93,4.37h-12Z"/>
    <path class="cls-1" d="M158.51,52.39l3.23-15.3h5.75l-3.23,15.3h-5.75Z"/>
    <path class="cls-1" d="M171.15,52.63c-1.08,0-2.09-.09-3.05-.27-.96-.18-1.74-.45-2.34-.8l.9-4.3c.68.36,1.46.67,2.34.9.88.24,1.68.36,2.41.36.51,0,.91-.07,1.21-.2.3-.13.45-.33.45-.58s-.23-.45-.69-.59-1.05-.36-1.78-.67c-1.01-.43-1.77-.91-2.28-1.44-.51-.53-.76-1.22-.76-2.08,0-.43.06-.87.17-1.33.35-1.62,1.12-2.82,2.3-3.6,1.19-.78,3-1.18,5.44-1.18.51,0,1.06.04,1.66.11s1.19.16,1.76.27c.57.11,1.05.23,1.45.36l-.93,4.32c-.78-.36-1.48-.61-2.13-.74-.64-.13-1.22-.19-1.72-.19-.29,0-.58.02-.88.05-.3.03-.56.1-.77.19-.21.1-.32.24-.32.43s.17.34.51.44c.34.1.86.27,1.56.49,1.33.4,2.25.9,2.77,1.5.51.6.77,1.33.77,2.19,0,.24-.02.48-.05.74s-.08.52-.14.81c-.21.97-.61,1.81-1.2,2.54-.59.73-1.43,1.29-2.51,1.69-1.08.4-2.46.59-4.16.59Z"/>
    <path class="cls-1" d="M182.31,52.39l2.35-11.17h-3.9l.88-4.13h13.54l-.88,4.13h-3.9l-2.35,11.17h-5.75Z"/>
    <path class="cls-1" d="M192.79,52.39l3.23-15.3h5.75l-3.23,15.3h-5.75Z"/>
    <path class="cls-1" d="M200.23,52.39l3.23-15.3h4.82l3.02,5.99,1.26-5.99h5.75l-3.23,15.3h-4.85l-2.99-5.99-1.26,5.99h-5.75Z"/>
    <path class="cls-1" d="M225.13,52.63c-2.33,0-4.15-.49-5.48-1.47-1.32-.98-1.98-2.43-1.98-4.35,0-.32.02-.65.06-1,.04-.35.1-.7.18-1.07.55-2.6,1.73-4.56,3.53-5.89,1.8-1.33,4.29-2,7.47-2,.98,0,1.85.07,2.6.2.75.13,1.46.33,2.13.58l-1,4.8c-.68-.29-1.39-.48-2.11-.58s-1.49-.15-2.28-.15c-1.11,0-2.07.22-2.87.65s-1.34,1.23-1.59,2.39c-.11.46-.17.9-.17,1.31,0,.63.2,1.08.59,1.34.4.26,1.04.39,1.92.39.51,0,.99-.06,1.45-.17l.21-.93h-2.54l.74-3.47h7.29l-1.69,7.91c-.73.4-1.64.74-2.72,1.05-1.09.3-2.33.45-3.74.45Z"/>
    <path class="cls-1" d="M237.98,52.63c-1.08,0-2.09-.09-3.05-.27-.96-.18-1.74-.45-2.34-.8l.9-4.3c.68.36,1.46.67,2.34.9.88.24,1.68.36,2.41.36.51,0,.91-.07,1.21-.2.3-.13.45-.33.45-.58s-.23-.45-.69-.59-1.05-.36-1.78-.67c-1.01-.43-1.77-.91-2.28-1.44-.51-.53-.76-1.22-.76-2.08,0-.43.06-.87.17-1.33.35-1.62,1.12-2.82,2.3-3.6,1.19-.78,3-1.18,5.44-1.18.51,0,1.06.04,1.66.11s1.19.16,1.76.27c.57.11,1.05.23,1.45.36l-.93,4.32c-.78-.36-1.48-.61-2.13-.74-.64-.13-1.22-.19-1.72-.19-.29,0-.58.02-.88.05-.3.03-.56.1-.77.19-.21.1-.32.24-.32.43s.17.34.51.44c.34.1.86.27,1.56.49,1.33.4,2.25.9,2.77,1.5.51.6.77,1.33.77,2.19,0,.24-.02.48-.05.74s-.08.52-.14.81c-.21.97-.61,1.81-1.2,2.54-.59.73-1.43,1.29-2.51,1.69-1.08.4-2.46.59-4.16.59Z"/>
  </g>
  <rect class="cls-2" x="269.91" y="63.68" width="1043.51" height="1"/>
</svg>