<?xml version="1.0" encoding="UTF-8"?>
<svg id="Layer_1" xmlns="http://www.w3.org/2000/svg" version="1.1" viewBox="0 0 1000 335.5">
  <!-- Generator: Adobe Illustrator 29.1.0, SVG Export Plug-In . SVG Version: 2.1.0 Build 142)  -->
  <defs>
    <style>
      .st0 {
        fill: #fff;
      }

      .st1 {
        fill: #eb008b;
      }
    </style>
  </defs>
  <g>
    <path class="st1" d="M175.16-322.84c-32.5,0-58.84,26.34-58.84,58.84s26.34,58.84,58.84,58.84,58.84-26.34,58.84-58.84-26.34-58.84-58.84-58.84ZM153.57-223.6l32.45-32.26,14.71-14.63c.78-.78.78-2.05,0-2.83-.78-.78-2.05-.78-2.83,0l-14.67,14.66-16.59,16.57h0c-3.81,4.33-9.39,7.05-15.61,7.05-11.51,0-20.83-9.32-20.83-20.83,0-6.24,2.74-11.84,7.09-15.65l-.02-.02,32.59-32.87h27.17l-32.79,32.42-14.63,14.46c-.78.78-.78,2.05,0,2.83.78.78,2.06.78,2.83,0l14.6-14.5,17.28-17.15.03-.03c3.78-3.92,9.09-6.36,14.97-6.36,11.51,0,20.83,9.33,20.83,20.83,0,5.87-2.43,11.17-6.34,14.96l-33.06,33.35h-27.17ZM210.17-223.6c-5.5,0-9.97-4.46-9.97-9.97s4.46-9.97,9.97-9.97,9.97,4.46,9.97,9.97-4.46,9.97-9.97,9.97Z"/>
    <path class="st1" d="M175.16-197.84c-8.93,0-17.6-1.75-25.75-5.2-7.88-3.33-14.95-8.1-21.03-14.18-6.08-6.08-10.85-13.15-14.18-21.03-3.45-8.16-5.2-16.82-5.2-25.75s1.75-17.6,5.2-25.75c3.33-7.88,8.1-14.95,14.18-21.03,6.08-6.08,13.15-10.85,21.03-14.18,8.16-3.45,16.82-5.2,25.75-5.2s17.6,1.75,25.75,5.2c7.88,3.33,14.95,8.1,21.03,14.18,6.08,6.08,10.85,13.15,14.18,21.03,3.45,8.16,5.2,16.82,5.2,25.75s-1.75,17.6-5.2,25.75c-3.33,7.88-8.1,14.95-14.18,21.03-6.08,6.08-13.15,10.85-21.03,14.18-8.16,3.45-16.82,5.2-25.75,5.2ZM175.16-327.45c-16.95,0-32.88,6.6-44.87,18.59-11.98,11.98-18.59,27.92-18.59,44.87s6.6,32.88,18.59,44.87c11.98,11.98,27.92,18.59,44.87,18.59s32.88-6.6,44.87-18.59c11.98-11.98,18.59-27.92,18.59-44.87s-6.6-32.88-18.59-44.87c-11.98-11.98-27.92-18.59-44.87-18.59Z"/>
  </g>
  <g>
    <path class="st0" d="M318.45-250.37c0,5.15-1.81,9.55-5.43,13.2-3.62,3.65-8,5.47-13.15,5.47h-42.39c0-2.82,1-5.23,2.99-7.22,1.99-1.99,4.4-2.99,7.22-2.99h32.19c2.33,0,4.32-.83,5.98-2.48,1.65-1.66,2.48-3.65,2.48-5.98s-.83-4.32-2.48-5.98c-1.66-1.65-3.65-2.48-5.98-2.48h-23.73c-5.15,0-9.57-1.81-13.24-5.43-1.35-1.41-2.48-2.97-3.4-4.69-1.35-2.64-2.02-5.49-2.02-8.55,0-5.15,1.82-9.53,5.47-13.15,3.65-3.62,8.05-5.43,13.2-5.43h42.3c0,2.82-.98,5.21-2.94,7.17-1.96,1.96-4.35,2.94-7.17,2.94h-32.19c-2.33,0-4.32.83-5.98,2.48s-2.48,3.65-2.48,5.98.83,4.41,2.48,6.07,3.65,2.48,5.98,2.48h23.73c5.15,0,9.53,1.81,13.15,5.43,1.41,1.41,2.54,2.97,3.4,4.69,1.35,2.64,2.02,5.46,2.02,8.46Z"/>
    <path class="st0" d="M323.04-285.96c0-2.76,1-5.13,2.99-7.13s4.4-2.99,7.22-2.99v54.17c0,2.82-1,5.23-2.99,7.22-1.99,1.99-4.4,2.99-7.22,2.99v-54.26Z"/>
    <path class="st0" d="M415.6-289.13c4.63,4.63,6.94,10.22,6.94,16.78v40.65c-2.76,0-5.14-1-7.13-2.99-1.99-1.99-2.99-4.4-2.99-7.22v-30.44c0-3.8-1.32-7-3.95-9.61-2.64-2.61-5.89-3.94-9.75-4-3.8.12-6.99,1.52-9.56,4.18-2.58,2.67-3.86,5.87-3.86,9.61v40.46h-10.21v-40.65c0-3.8-1.3-7-3.91-9.61-2.61-2.61-5.84-3.94-9.7-4-3.86.12-7.07,1.52-9.61,4.18s-3.82,5.87-3.82,9.61v30.26c0,2.82-1,5.23-2.99,7.22-1.99,1.99-4.4,2.99-7.22,2.99v-40.65c0-6.56,2.31-12.15,6.94-16.78,4.63-4.63,10.22-6.94,16.78-6.94,7.54,0,13.76,3.01,18.67,9.01,4.84-6.01,11.04-9.01,18.58-9.01,6.56,0,12.15,2.31,16.78,6.94Z"/>
    <path class="st0" d="M457.68-231.7c-8.46,0-15.67-2.97-21.61-8.92-5.95-5.95-8.92-13.15-8.92-21.61v-33.84c2.82,0,5.23,1,7.22,2.99,1.99,1.99,2.99,4.37,2.99,7.13v23.73c0,5.64,1.98,10.44,5.93,14.39,3.95,3.95,8.75,5.93,14.39,5.93s10.36-1.98,14.35-5.93c3.98-3.95,5.98-8.75,5.98-14.39v-23.73c0-2.76,1-5.13,2.99-7.13s4.37-2.99,7.13-2.99v33.84c0,8.46-2.97,15.67-8.92,21.61-5.95,5.95-13.12,8.92-21.52,8.92Z"/>
    <path class="st0" d="M526.83-275.93l20.42,34.03c1.29,2.39,1.3,4.69.05,6.9-1.26,2.21-3.17,3.31-5.75,3.31l-15.82-26.21c-2.02-3.19-4.77-5.12-8.23-5.79-3.46-.67-6.73.09-9.79,2.3-3.19,2.7-4.78,5.95-4.78,9.75v9.75c0,2.82-1,5.23-2.99,7.22-1.99,1.99-4.4,2.99-7.22,2.99v-54.35c0-2.76.98-5.12,2.94-7.08s4.35-2.94,7.17-2.94l.09.09v25.47l10.48-8,8.09-6.16,14.99-11.4c1.84,0,3.26.61,4.28,1.84,1.01,1.23,1.49,2.62,1.43,4.18-.06,1.56-.8,2.93-2.21,4.09l-13.15,10.02Z"/>
    <path class="st0" d="M583.39-231.7c-8.46,0-15.67-2.97-21.61-8.92-5.95-5.95-8.92-13.15-8.92-21.61v-33.84c2.82,0,5.23,1,7.22,2.99,1.99,1.99,2.99,4.37,2.99,7.13v23.73c0,5.64,1.98,10.44,5.93,14.39,3.95,3.95,8.75,5.93,14.39,5.93s10.36-1.98,14.35-5.93c3.98-3.95,5.98-8.75,5.98-14.39v-23.73c0-2.76,1-5.13,2.99-7.13s4.37-2.99,7.13-2.99v33.84c0,8.46-2.97,15.67-8.92,21.61-5.95,5.95-13.12,8.92-21.52,8.92Z"/>
    <path class="st0" d="M620.45-258.83c.92-1.72,2.05-3.28,3.4-4.69,3.68-3.62,8.09-5.43,13.24-5.43h23.73c2.33,0,4.32-.83,5.98-2.48s2.48-3.68,2.48-6.07-.83-4.32-2.48-5.98-3.65-2.48-5.98-2.48h-32.19c-2.82,0-5.23-.98-7.22-2.94-1.99-1.96-2.99-4.35-2.99-7.17h42.39c5.15,0,9.53,1.81,13.15,5.43,3.62,3.62,5.43,8,5.43,13.15,0,3.07-.68,5.92-2.02,8.55-.86,1.72-1.99,3.28-3.4,4.69-3.62,3.62-8,5.43-13.15,5.43h-23.73c-2.33,0-4.32.83-5.98,2.48-1.65,1.66-2.48,3.65-2.48,5.98s.83,4.32,2.48,5.98c1.66,1.65,3.65,2.48,5.98,2.48h32.19c2.82,0,5.21,1,7.17,2.99,1.96,1.99,2.94,4.4,2.94,7.22h-42.3c-5.15,0-9.55-1.82-13.2-5.47-3.65-3.65-5.47-8.05-5.47-13.2,0-3,.67-5.82,2.02-8.46Z"/>
    <path class="st0" d="M736.05-287.15c5.95,5.95,8.92,13.12,8.92,21.52v33.93c-2.76,0-5.14-1-7.13-2.99-1.99-1.99-2.99-4.4-2.99-7.22v-10.12h-40.65v10.12c0,2.82-1,5.23-2.99,7.22-1.99,1.99-4.4,2.99-7.22,2.99v-33.93c0-8.4,2.97-15.57,8.92-21.52s13.15-8.92,21.61-8.92,15.57,2.98,21.52,8.92ZM694.2-262.23h40.65v-3.4c0-5.58-1.99-10.36-5.98-14.35-3.99-3.98-8.77-5.98-14.35-5.98s-10.44,1.99-14.39,5.98c-3.95,3.99-5.93,8.77-5.93,14.35v3.4Z"/>
  </g>
  <g>
    <path class="st1" d="M759.26-229.46l12.16-31.59h12.31l12.16,31.59h-12.36l-2.26-5.89h-7.41l-2.26,5.89h-12.36ZM775.15-243.44h4.81l-2.4-6.03-2.4,6.03Z"/>
    <path class="st1" d="M811.69-228.97c-2.98,0-5.66-.49-8.04-1.47-2.39-.98-4.27-2.44-5.66-4.37-1.39-1.93-2.08-4.3-2.08-7.11v-19.13h11.87v17.61c0,2.94,1.31,4.41,3.92,4.41s3.92-1.47,3.92-4.41v-17.61h11.87v19.13c0,2.81-.69,5.18-2.08,7.11-1.39,1.93-3.28,3.38-5.66,4.37-2.39.98-5.07,1.47-8.04,1.47Z"/>
    <path class="st1" d="M837-229.46v-23.05h-8.04v-8.53h27.96v8.53h-8.04v23.05h-11.87Z"/>
    <path class="st1" d="M874.08-228.97c-3.56,0-6.6-.53-9.12-1.59-2.52-1.06-4.45-2.79-5.79-5.17-1.34-2.39-2.01-5.56-2.01-9.52s.67-7.17,2.01-9.54c1.34-2.37,3.27-4.09,5.79-5.15,2.52-1.06,5.56-1.59,9.12-1.59s6.6.53,9.12,1.59c2.52,1.06,4.45,2.78,5.79,5.15,1.34,2.37,2.01,5.55,2.01,9.54s-.67,7.13-2.01,9.52c-1.34,2.39-3.27,4.11-5.79,5.17-2.52,1.06-5.56,1.59-9.12,1.59ZM874.08-239.02c1.73,0,2.97-.47,3.7-1.4.74-.93,1.1-2.54,1.1-4.83s-.37-3.9-1.1-4.83c-.74-.93-1.97-1.4-3.7-1.4s-2.97.47-3.7,1.4c-.74.93-1.1,2.54-1.1,4.83s.37,3.9,1.1,4.83c.74.93,1.97,1.4,3.7,1.4Z"/>
  </g>
  <g>
    <g>
      <path class="st0" d="M127.75,100.32c-37.24,0-67.43,30.19-67.43,67.43s30.19,67.43,67.43,67.43,67.43-30.19,67.43-67.43-30.19-67.43-67.43-67.43ZM103,214.05l37.19-36.97,16.85-16.76c.9-.9.9-2.35,0-3.25-.9-.9-2.35-.9-3.25,0l-16.81,16.79-19.01,18.99h0c-4.36,4.96-10.76,8.08-17.89,8.08-13.18,0-23.87-10.68-23.87-23.87,0-7.15,3.14-13.57,8.13-17.93l-.03-.03,37.34-37.66h31.14l-37.58,37.16-16.76,16.57c-.9.9-.9,2.35,0,3.25.9.9,2.36.9,3.25,0l16.73-16.62,19.8-19.66.03-.03c4.33-4.49,10.42-7.29,17.16-7.29,13.18,0,23.87,10.69,23.87,23.87,0,6.73-2.78,12.8-7.26,17.14l-37.88,38.22h-31.14ZM167.86,214.05c-6.31,0-11.42-5.11-11.42-11.42s5.11-11.42,11.42-11.42,11.42,5.11,11.42,11.42-5.11,11.42-11.42,11.42Z"/>
      <path class="st0" d="M127.75,243.57c-10.24,0-20.17-2-29.51-5.96-9.03-3.82-17.14-9.29-24.1-16.25-6.96-6.96-12.43-15.07-16.25-24.1-3.95-9.35-5.96-19.28-5.96-29.51s2-20.17,5.96-29.51c3.82-9.03,9.29-17.14,16.25-24.1,6.96-6.96,15.07-12.43,24.1-16.25,9.35-3.95,19.28-5.96,29.51-5.96s20.17,2,29.51,5.96c9.03,3.82,17.14,9.29,24.1,16.25,6.96,6.96,12.43,15.07,16.25,24.1,3.95,9.35,5.96,19.28,5.96,29.51s-2,20.17-5.96,29.51c-3.82,9.03-9.29,17.14-16.25,24.1-6.96,6.96-15.07,12.43-24.1,16.25-9.35,3.95-19.28,5.96-29.51,5.96ZM127.75,95.03c-19.42,0-37.68,7.56-51.42,21.3-13.73,13.73-21.3,32-21.3,51.42s7.56,37.68,21.3,51.42c13.73,13.73,32,21.3,51.42,21.3s37.68-7.56,51.42-21.3c13.73-13.73,21.3-32,21.3-51.42s-7.56-37.68-21.3-51.42c-13.73-13.73-32-21.3-51.42-21.3Z"/>
    </g>
    <g>
      <path class="st0" d="M291.94,183.37c0,5.9-2.07,10.94-6.22,15.12-4.15,4.18-9.17,6.27-15.07,6.27h-48.58c0-3.23,1.14-5.99,3.43-8.27,2.28-2.28,5.04-3.43,8.27-3.43h36.89c2.67,0,4.95-.95,6.85-2.85,1.9-1.9,2.85-4.18,2.85-6.85s-.95-4.95-2.85-6.85c-1.9-1.9-4.18-2.85-6.85-2.85h-27.19c-5.9,0-10.96-2.07-15.18-6.22-1.55-1.62-2.85-3.41-3.9-5.37-1.55-3.02-2.32-6.29-2.32-9.8,0-5.9,2.09-10.92,6.27-15.07,4.18-4.15,9.22-6.22,15.12-6.22h48.48c0,3.23-1.13,5.97-3.37,8.22-2.25,2.25-4.99,3.37-8.22,3.37h-36.89c-2.67,0-4.95.95-6.85,2.85s-2.85,4.18-2.85,6.85.95,5.06,2.85,6.96,4.18,2.85,6.85,2.85h27.19c5.9,0,10.92,2.07,15.07,6.22,1.62,1.62,2.91,3.41,3.9,5.37,1.55,3.02,2.32,6.25,2.32,9.69Z"/>
      <path class="st0" d="M297.21,142.59c0-3.16,1.14-5.88,3.43-8.17s5.04-3.43,8.27-3.43v62.07c0,3.23-1.14,5.99-3.43,8.27-2.28,2.28-5.04,3.43-8.27,3.43v-62.18Z"/>
      <path class="st0" d="M403.28,138.95c5.3,5.31,7.96,11.72,7.96,19.23v46.58c-3.16,0-5.88-1.14-8.17-3.43-2.28-2.28-3.42-5.04-3.42-8.27v-34.88c0-4.36-1.51-8.03-4.53-11.01-3.02-2.99-6.74-4.51-11.17-4.58-4.36.14-8.01,1.74-10.96,4.79-2.95,3.06-4.43,6.73-4.43,11.01v46.37h-11.7v-46.58c0-4.36-1.49-8.03-4.48-11.01-2.99-2.99-6.69-4.51-11.12-4.58-4.43.14-8.1,1.74-11.01,4.79s-4.37,6.73-4.37,11.01v34.67c0,3.23-1.14,5.99-3.43,8.27-2.28,2.28-5.04,3.43-8.27,3.43v-46.58c0-7.52,2.65-13.93,7.96-19.23,5.3-5.3,11.72-7.96,19.23-7.96,8.64,0,15.77,3.44,21.39,10.33,5.55-6.88,12.65-10.33,21.29-10.33,7.52,0,13.93,2.65,19.23,7.96Z"/>
      <path class="st0" d="M451.5,204.77c-9.7,0-17.95-3.41-24.77-10.22-6.82-6.81-10.22-15.07-10.22-24.77v-38.78c3.23,0,5.99,1.14,8.27,3.43,2.28,2.28,3.43,5.01,3.43,8.17v27.19c0,6.47,2.27,11.96,6.8,16.49,4.53,4.53,10.03,6.8,16.49,6.8s11.87-2.27,16.44-6.8c4.57-4.53,6.85-10.03,6.85-16.49v-27.19c0-3.16,1.14-5.88,3.43-8.17s5.01-3.43,8.17-3.43v38.78c0,9.7-3.41,17.95-10.22,24.77-6.82,6.82-15.04,10.22-24.66,10.22Z"/>
      <path class="st0" d="M530.75,154.08l23.4,38.99c1.47,2.74,1.49,5.37.05,7.9-1.44,2.53-3.64,3.79-6.59,3.79l-18.13-30.04c-2.32-3.65-5.46-5.87-9.43-6.64-3.97-.77-7.71.1-11.22,2.63-3.65,3.09-5.48,6.82-5.48,11.17v11.17c0,3.23-1.14,5.99-3.43,8.27-2.28,2.28-5.04,3.43-8.27,3.43v-62.28c0-3.16,1.12-5.87,3.37-8.12s4.99-3.37,8.22-3.37l.11.11v29.19l12.01-9.17,9.27-7.06,17.18-13.07c2.11,0,3.74.7,4.9,2.11,1.16,1.41,1.7,3,1.63,4.79-.07,1.79-.91,3.36-2.53,4.69l-15.07,11.49Z"/>
      <path class="st0" d="M595.56,204.77c-9.7,0-17.95-3.41-24.77-10.22-6.82-6.81-10.22-15.07-10.22-24.77v-38.78c3.23,0,5.99,1.14,8.27,3.43,2.28,2.28,3.43,5.01,3.43,8.17v27.19c0,6.47,2.27,11.96,6.8,16.49,4.53,4.53,10.03,6.8,16.49,6.8s11.87-2.27,16.44-6.8c4.57-4.53,6.85-10.03,6.85-16.49v-27.19c0-3.16,1.14-5.88,3.43-8.17s5.01-3.43,8.17-3.43v38.78c0,9.7-3.41,17.95-10.22,24.77-6.82,6.82-15.04,10.22-24.66,10.22Z"/>
      <path class="st0" d="M638.03,173.68c1.05-1.97,2.35-3.76,3.9-5.37,4.22-4.15,9.27-6.22,15.18-6.22h27.19c2.67,0,4.95-.95,6.85-2.85s2.85-4.22,2.85-6.96-.95-4.95-2.85-6.85-4.18-2.85-6.85-2.85h-36.89c-3.23,0-5.99-1.12-8.27-3.37-2.28-2.25-3.43-4.99-3.43-8.22h48.58c5.9,0,10.92,2.07,15.07,6.22,4.15,4.15,6.22,9.17,6.22,15.07,0,3.51-.77,6.78-2.32,9.8-.98,1.97-2.28,3.76-3.9,5.37-4.15,4.15-9.17,6.22-15.07,6.22h-27.19c-2.67,0-4.95.95-6.85,2.85-1.9,1.9-2.85,4.18-2.85,6.85s.95,4.95,2.85,6.85c1.9,1.9,4.18,2.85,6.85,2.85h36.89c3.23,0,5.97,1.14,8.22,3.43,2.25,2.28,3.37,5.04,3.37,8.27h-48.48c-5.9,0-10.94-2.09-15.12-6.27-4.18-4.18-6.27-9.22-6.27-15.12,0-3.44.77-6.67,2.32-9.69Z"/>
      <path class="st0" d="M770.5,141.22c6.81,6.82,10.22,15.03,10.22,24.66v38.89c-3.16,0-5.88-1.14-8.17-3.43-2.28-2.28-3.43-5.04-3.43-8.27v-11.59h-46.58v11.59c0,3.23-1.14,5.99-3.43,8.27-2.28,2.28-5.04,3.43-8.27,3.43v-38.89c0-9.63,3.41-17.85,10.22-24.66s15.07-10.22,24.77-10.22,17.84,3.41,24.66,10.22ZM722.55,169.78h46.58v-3.9c0-6.39-2.28-11.87-6.85-16.44-4.57-4.57-10.05-6.85-16.44-6.85s-11.96,2.28-16.49,6.85c-4.53,4.57-6.8,10.05-6.8,16.44v3.9Z"/>
    </g>
    <g>
      <path class="st0" d="M797.1,204.76l13.94-36.2h14.11l13.94,36.2h-14.16l-2.59-6.74h-8.49l-2.59,6.74h-14.16ZM815.31,188.74h5.51l-2.75-6.91-2.75,6.91Z"/>
      <path class="st0" d="M857.19,205.32c-3.41,0-6.48-.56-9.22-1.69-2.74-1.13-4.9-2.79-6.49-5-1.59-2.21-2.39-4.93-2.39-8.15v-21.92h13.6v20.18c0,3.37,1.5,5.06,4.5,5.06s4.5-1.69,4.5-5.06v-20.18h13.6v21.92c0,3.22-.8,5.94-2.39,8.15-1.59,2.21-3.76,3.88-6.49,5-2.74,1.12-5.81,1.69-9.22,1.69Z"/>
      <path class="st0" d="M886.19,204.76v-26.42h-9.22v-9.78h32.04v9.78h-9.22v26.42h-13.6Z"/>
      <path class="st0" d="M928.68,205.32c-4.08,0-7.57-.61-10.45-1.83-2.89-1.22-5.1-3.19-6.63-5.93-1.54-2.74-2.3-6.37-2.3-10.9s.77-8.22,2.3-10.93c1.54-2.72,3.75-4.68,6.63-5.9,2.88-1.22,6.37-1.83,10.45-1.83s7.57.61,10.46,1.83c2.88,1.22,5.1,3.19,6.63,5.9,1.54,2.72,2.3,6.36,2.3,10.93s-.77,8.17-2.3,10.9c-1.54,2.74-3.75,4.71-6.63,5.93-2.89,1.22-6.37,1.83-10.46,1.83ZM928.68,193.8c1.99,0,3.4-.53,4.24-1.6.84-1.07,1.26-2.91,1.26-5.54s-.42-4.47-1.26-5.54c-.84-1.07-2.26-1.6-4.24-1.6s-3.4.53-4.24,1.6c-.84,1.07-1.27,2.91-1.27,5.54s.42,4.47,1.27,5.54c.84,1.07,2.26,1.6,4.24,1.6Z"/>
    </g>
  </g>
</svg>